# Blender v2.79 (sub 0) OBJ File: 'Ice cream.obj'
# www.blender.org
mtllib Ice cream.mtl
o Sphere129
v -0.146478 5.775144 -0.083312
v 0.542604 5.502022 -1.083391
v 0.169282 5.572562 -1.212226
v -0.199205 5.600884 -1.276468
v -0.543634 5.537922 -1.272775
v -0.895001 5.470369 -1.155334
v -1.240869 5.367942 -0.930130
v -1.414850 5.382949 -0.549714
v -1.395919 5.479079 -0.041994
v -1.186908 5.516117 0.524578
v -0.881212 5.552812 0.968897
v -0.529576 5.640865 1.228668
v -0.159578 5.656109 1.287802
v 0.140459 5.632851 1.209568
v 0.369592 5.640153 1.007256
v 0.623959 5.643637 0.747273
v 0.892129 5.663825 0.452193
v 1.143808 5.709585 0.141653
v 1.221875 5.682257 -0.223525
v 1.128160 5.552185 -0.591478
v 0.890914 5.501121 -0.893321
v 1.243770 4.903763 -2.014002
v 0.596658 5.014506 -2.445344
v -0.117826 5.171585 -2.610961
v -0.801938 5.218003 -2.223324
v -1.583549 5.006291 -1.780365
v -2.320951 4.836892 -1.309034
v -2.322588 5.051420 -0.484202
v -2.116711 5.259119 0.294642
v -2.066068 5.082228 0.774694
v -1.872213 5.106392 1.431632
v -1.415857 5.173627 2.025711
v -0.582387 4.882131 2.181650
v 0.357168 4.860238 2.253549
v 1.264539 5.095320 2.250517
v 1.711508 5.056845 1.712521
v 1.941871 4.886862 0.964158
v 2.450550 4.908352 0.416360
v 2.579308 5.050285 -0.267453
v 2.305403 4.840670 -1.132111
v 1.886477 5.064047 -1.695328
v 1.739410 3.887764 -2.866188
v 0.816476 4.265808 -3.372703
v -0.269006 3.825342 -3.191421
v -1.254226 4.012279 -2.983149
v -2.065388 4.038369 -2.583247
v -2.870342 4.163785 -1.905900
v -3.050891 3.998943 -0.780931
v -3.536008 3.926816 0.209938
v -3.204298 3.828991 1.322022
v -2.261203 4.026100 2.148496
v -1.466294 4.276502 2.956672
v -0.496421 4.023311 3.199010
v 0.287527 4.132843 3.086369
v 1.202015 4.157640 2.756248
v 2.395339 4.272347 2.426598
v 2.846100 4.008832 1.484128
v 3.380839 4.067014 0.624280
v 3.483793 4.081707 -0.436841
v 3.222813 4.230451 -1.427074
v 2.581252 4.236187 -2.322194
v 2.133652 2.726733 -3.324556
v 1.039081 3.078585 -3.916270
v -0.328307 2.756471 -4.080529
v -1.535061 3.019379 -3.593313
v -2.553298 2.924738 -2.951251
v -3.452015 3.118917 -2.027936
v -3.633251 2.978297 -0.787136
v -3.688898 2.803211 0.465547
v -3.535049 2.860859 1.366156
v -2.840296 2.978002 2.423398
v -2.031880 3.197081 3.291418
v -0.791718 2.951166 3.703470
v 0.394607 2.900468 3.743781
v 1.800123 2.816725 3.598966
v 2.855819 2.957510 2.833468
v 3.399678 2.904876 1.729314
v 3.935772 3.053092 0.669354
v 3.953951 2.946366 -0.459899
v 3.601346 3.034696 -1.702909
v 3.087650 2.934007 -2.636203
v 2.107757 1.538983 -3.631486
v 0.784552 1.797911 -3.992140
v -0.524351 1.503200 -4.117650
v -1.714101 1.840061 -3.950892
v -2.545913 1.582552 -3.192154
v -3.460891 1.824629 -2.234042
v -4.135960 1.730663 -1.179085
v -4.182443 1.546626 0.199262
v -3.679117 1.706598 1.734620
v -2.889522 1.740910 2.907576
v -1.843964 1.907947 3.572169
v -0.584838 1.692919 3.992532
v 0.520288 1.557582 4.117653
v 1.517110 1.487494 3.618540
v 2.552807 1.580108 2.860372
v 3.601454 1.681249 1.962433
v 4.142849 1.821722 0.847300
v 3.985448 1.732082 -0.531617
v 3.675048 1.729569 -1.734621
v 3.089230 1.616229 -2.907190
v 1.921565 0.188340 -3.562276
v 0.874520 0.540193 -3.874427
v -0.022199 0.218079 -3.935467
v -1.408309 0.480987 -3.509048
v -2.504655 0.386346 -2.978756
v -3.248208 0.580526 -2.033237
v -3.787926 0.439904 -0.932027
v -3.652334 0.264820 0.497743
v -3.535816 0.322466 1.334044
v -2.826949 0.439610 2.567958
v -1.821354 0.658690 3.297692
v -0.710967 0.412775 3.731279
v 0.423741 0.362077 3.659880
v 1.938423 0.278334 3.454950
v 2.642160 0.419118 2.790735
v 3.463380 0.366484 1.966687
v 3.925433 0.514699 0.744005
v 4.182443 0.407974 -0.551845
v 3.937350 0.496305 -1.609633
v 2.990493 0.395616 -2.711111
v 1.935866 -0.077815 -3.476378
v 0.916508 0.304001 -3.770532
v -0.032934 -0.040799 -3.831857
v -1.376409 0.195761 -3.449104
v -2.504466 0.166864 -2.950799
v -3.146998 0.338834 -1.963512
v -3.679661 0.175725 -0.904046
v -3.594486 0.009937 0.454027
v -3.444924 0.027091 1.333032
v -2.750564 0.172971 2.499746
v -1.782319 0.415463 3.196025
v -0.708239 0.164190 3.682610
v 0.434081 0.149574 3.592895
v 1.863549 0.069028 3.358278
v 2.622605 0.220228 2.707613
v 3.433983 0.106284 1.913026
v 3.797801 0.249227 0.660858
v 4.081620 0.147895 -0.544856
v 3.846064 0.270173 -1.571997
v 2.958824 0.178573 -2.587673
v 0.176579 0.155976 -0.082553
vt 0.000000 1.000000
vt 0.000000 0.900000
vt 0.050000 0.900000
vt 0.050000 1.000000
vt 0.100000 0.900000
vt 0.100000 1.000000
vt 0.150000 0.900000
vt 0.150000 1.000000
vt 0.200000 0.900000
vt 0.200000 1.000000
vt 0.250000 0.900000
vt 0.250000 1.000000
vt 0.300000 0.900000
vt 0.300000 1.000000
vt 0.350000 0.900000
vt 0.350000 1.000000
vt 0.400000 0.900000
vt 0.400000 1.000000
vt 0.450000 0.900000
vt 0.450000 1.000000
vt 0.500000 0.900000
vt 0.500000 1.000000
vt 0.550000 0.900000
vt 0.550000 1.000000
vt 0.600000 0.900000
vt 0.600000 1.000000
vt 0.650000 0.900000
vt 0.650000 1.000000
vt 0.700000 0.900000
vt 0.700000 1.000000
vt 0.750000 0.900000
vt 0.750000 1.000000
vt 0.800000 0.900000
vt 0.800000 1.000000
vt 0.850000 0.900000
vt 0.850000 1.000000
vt 0.900000 0.900000
vt 0.900000 1.000000
vt 0.950000 0.900000
vt 0.950000 1.000000
vt 1.000000 0.900000
vt 0.000000 0.800000
vt 0.050000 0.800000
vt 0.100000 0.800000
vt 0.150000 0.800000
vt 0.200000 0.800000
vt 0.250000 0.800000
vt 0.300000 0.800000
vt 0.350000 0.800000
vt 0.400000 0.800000
vt 0.450000 0.800000
vt 0.500000 0.800000
vt 0.550000 0.800000
vt 0.600000 0.800000
vt 0.650000 0.800000
vt 0.700000 0.800000
vt 0.750000 0.800000
vt 0.800000 0.800000
vt 0.850000 0.800000
vt 0.900000 0.800000
vt 0.950000 0.800000
vt 1.000000 0.800000
vt 0.000000 0.700000
vt 0.050000 0.700000
vt 0.100000 0.700000
vt 0.150000 0.700000
vt 0.200000 0.700000
vt 0.250000 0.700000
vt 0.300000 0.700000
vt 0.350000 0.700000
vt 0.400000 0.700000
vt 0.450000 0.700000
vt 0.500000 0.700000
vt 0.550000 0.700000
vt 0.600000 0.700000
vt 0.650000 0.700000
vt 0.700000 0.700000
vt 0.750000 0.700000
vt 0.800000 0.700000
vt 0.850000 0.700000
vt 0.900000 0.700000
vt 0.950000 0.700000
vt 1.000000 0.700000
vt 0.000000 0.600000
vt 0.050000 0.600000
vt 0.100000 0.600000
vt 0.150000 0.600000
vt 0.200000 0.600000
vt 0.250000 0.600000
vt 0.300000 0.600000
vt 0.350000 0.600000
vt 0.400000 0.600000
vt 0.450000 0.600000
vt 0.500000 0.600000
vt 0.550000 0.600000
vt 0.600000 0.600000
vt 0.650000 0.600000
vt 0.700000 0.600000
vt 0.750000 0.600000
vt 0.800000 0.600000
vt 0.850000 0.600000
vt 0.900000 0.600000
vt 0.950000 0.600000
vt 1.000000 0.600000
vt 0.000000 0.500000
vt 0.050000 0.500000
vt 0.100000 0.500000
vt 0.150000 0.500000
vt 0.200000 0.500000
vt 0.250000 0.500000
vt 0.300000 0.500000
vt 0.350000 0.500000
vt 0.400000 0.500000
vt 0.450000 0.500000
vt 0.500000 0.500000
vt 0.550000 0.500000
vt 0.600000 0.500000
vt 0.650000 0.500000
vt 0.700000 0.500000
vt 0.750000 0.500000
vt 0.800000 0.500000
vt 0.850000 0.500000
vt 0.900000 0.500000
vt 0.950000 0.500000
vt 1.000000 0.500000
vt 0.000000 0.400000
vt 0.050000 0.400000
vt 0.100000 0.400000
vt 0.150000 0.400000
vt 0.200000 0.400000
vt 0.250000 0.400000
vt 0.300000 0.400000
vt 0.350000 0.400000
vt 0.400000 0.400000
vt 0.450000 0.400000
vt 0.500000 0.400000
vt 0.550000 0.400000
vt 0.600000 0.400000
vt 0.650000 0.400000
vt 0.700000 0.400000
vt 0.750000 0.400000
vt 0.800000 0.400000
vt 0.850000 0.400000
vt 0.900000 0.400000
vt 0.950000 0.400000
vt 1.000000 0.400000
vt 0.000000 0.300000
vt 0.050000 0.300000
vt 0.100000 0.300000
vt 0.150000 0.300000
vt 0.200000 0.300000
vt 0.250000 0.300000
vt 0.300000 0.300000
vt 0.350000 0.300000
vt 0.400000 0.300000
vt 0.450000 0.300000
vt 0.500000 0.300000
vt 0.550000 0.300000
vt 0.600000 0.300000
vt 0.650000 0.300000
vt 0.700000 0.300000
vt 0.750000 0.300000
vt 0.800000 0.300000
vt 0.850000 0.300000
vt 0.900000 0.300000
vt 0.950000 0.300000
vt 1.000000 0.300000
vt 0.000000 0.200000
vt 0.050000 0.200000
vt 0.100000 0.200000
vt 0.150000 0.200000
vt 0.200000 0.200000
vt 0.250000 0.200000
vt 0.300000 0.200000
vt 0.350000 0.200000
vt 0.400000 0.200000
vt 0.450000 0.200000
vt 0.500000 0.200000
vt 0.550000 0.200000
vt 0.600000 0.200000
vt 0.650000 0.200000
vt 0.700000 0.200000
vt 0.750000 0.200000
vt 0.800000 0.200000
vt 0.850000 0.200000
vt 0.900000 0.200000
vt 0.950000 0.200000
vn -0.0657 0.9967 -0.0476
vn 0.2179 0.9399 -0.2628
vn 0.1941 0.9551 -0.2239
vn -0.0306 0.9746 -0.2219
vn -0.2282 0.9513 -0.2073
vn -0.3024 0.9324 -0.1977
vn -0.3344 0.9294 -0.1564
vn -0.3034 0.9374 -0.1708
vn -0.2987 0.9531 -0.0483
vn -0.3122 0.9463 0.0839
vn -0.2974 0.9488 0.1060
vn -0.1588 0.9427 0.2933
vn 0.0229 0.9218 0.3869
vn 0.1183 0.9442 0.3075
vn 0.1554 0.9717 0.1781
vn 0.2135 0.9581 0.1911
vn 0.2282 0.9277 0.2956
vn 0.2645 0.9473 0.1806
vn 0.2467 0.9504 -0.1892
vn 0.2017 0.9314 -0.3030
vn 0.1357 0.9440 -0.3007
vn 0.2762 0.8132 -0.5123
vn 0.2785 0.7943 -0.5400
vn 0.0414 0.7268 -0.6856
vn -0.3226 0.8183 -0.4757
vn -0.4196 0.8151 -0.3994
vn -0.5700 0.7815 -0.2538
vn -0.5743 0.8026 -0.1611
vn -0.4346 0.8871 0.1555
vn -0.5398 0.7982 0.2676
vn -0.6329 0.7292 0.2601
vn -0.3121 0.8010 0.5109
vn 0.0594 0.7671 0.6388
vn -0.0457 0.7269 0.6853
vn 0.1639 0.7695 0.6172
vn 0.5187 0.8399 0.1599
vn 0.5346 0.8099 0.2415
vn 0.5446 0.7619 0.3506
vn 0.5762 0.8173 -0.0055
vn 0.4892 0.8333 -0.2574
vn 0.3599 0.8453 -0.3948
vn 0.4267 0.5547 -0.7143
vn 0.1378 0.6589 -0.7395
vn -0.1980 0.5614 -0.8035
vn -0.2683 0.5301 -0.8044
vn -0.4424 0.5480 -0.7099
vn -0.6856 0.5997 -0.4128
vn -0.8371 0.5213 -0.1658
vn -0.9089 0.4090 -0.0820
vn -0.7463 0.5202 0.4152
vn -0.6593 0.5622 0.4992
vn -0.3458 0.6015 0.7201
vn -0.0097 0.5879 0.8089
vn 0.1062 0.6387 0.7621
vn 0.2045 0.5563 0.8055
vn 0.5659 0.5785 0.5874
vn 0.7241 0.6146 0.3130
vn 0.7507 0.6021 0.2720
vn 0.8450 0.5342 -0.0251
vn 0.7359 0.5990 -0.3157
vn 0.4921 0.6144 -0.6167
vn 0.4797 0.2762 -0.8328
vn 0.3147 0.2550 -0.9143
vn -0.0922 0.3038 -0.9483
vn -0.3868 0.4444 -0.8080
vn -0.5893 0.3011 -0.7497
vn -0.8200 0.3561 -0.4480
vn -0.8985 0.4382 -0.0239
vn -0.9611 0.2664 0.0729
vn -0.9083 0.2421 0.3413
vn -0.7369 0.3330 0.5883
vn -0.5479 0.3095 0.7772
vn -0.1450 0.3073 0.9405
vn 0.0912 0.3349 0.9378
vn 0.3766 0.2402 0.8947
vn 0.6845 0.2418 0.6877
vn 0.8413 0.3376 0.4221
vn 0.9216 0.3282 0.2070
vn 0.9704 0.2142 -0.1113
vn 0.9021 0.2256 -0.3678
vn 0.7068 0.2656 -0.6556
vn 0.4383 0.0411 -0.8979
vn 0.2026 0.0006 -0.9793
vn -0.0825 -0.1147 -0.9900
vn -0.4521 0.0175 -0.8918
vn -0.6932 -0.0171 -0.7205
vn -0.7885 -0.0581 -0.6122
vn -0.9671 -0.0036 -0.2545
vn -0.9951 -0.0234 0.0956
vn -0.9000 0.0372 0.4344
vn -0.6902 0.0373 0.7226
vn -0.4504 0.0133 0.8927
vn -0.1849 -0.0161 0.9826
vn 0.1409 -0.0123 0.9899
vn 0.4776 0.0376 0.8778
vn 0.6279 -0.0687 0.7753
vn 0.8296 0.0061 0.5583
vn 0.9743 0.0545 0.2185
vn 0.9794 0.1114 -0.1684
vn 0.9176 0.0662 -0.3920
vn 0.7572 -0.0093 -0.6531
vn 0.4064 -0.2049 -0.8904
vn 0.1790 -0.1977 -0.9638
vn -0.0525 -0.2772 -0.9594
vn -0.3433 -0.2817 -0.8960
vn -0.6563 -0.1647 -0.7363
vn -0.7982 -0.3156 -0.5131
vn -0.9228 -0.3221 -0.2113
vn -0.9516 -0.2897 0.1027
vn -0.8993 -0.2685 0.3453
vn -0.6855 -0.2931 0.6665
vn -0.4641 -0.2888 0.8374
vn -0.1705 -0.1969 0.9655
vn 0.0604 -0.3106 0.9486
vn 0.4806 -0.2536 0.8395
vn 0.6797 -0.1400 0.7200
vn 0.8315 -0.1462 0.5359
vn 0.9109 -0.3081 0.2746
vn 0.9860 -0.1573 -0.0559
vn 0.8900 -0.1207 -0.4396
vn 0.7192 -0.2604 -0.6442
vn 0.5287 -0.3075 -0.7912
vn 0.2697 -0.5912 -0.7601
vn -0.1175 -0.4733 -0.8730
vn -0.5137 -0.3430 -0.7864
vn -0.7022 -0.1174 -0.7022
vn -0.6342 -0.5201 -0.5721
vn -0.7850 -0.5501 -0.2849
vn -0.9120 -0.3752 0.1656
vn -0.7998 -0.3708 0.4720
vn -0.6506 -0.3918 0.6506
vn -0.5865 -0.5019 0.6357
vn -0.2317 -0.3106 0.9219
vn 0.1520 -0.4463 0.8819
vn 0.4171 -0.5772 0.7020
vn 0.6396 -0.4264 0.6396
vn 0.7672 -0.2508 0.5904
vn 0.7203 -0.6116 0.3274
vn 0.8500 -0.5266 -0.0164
vn 0.6752 -0.5041 -0.5385
vn 0.6181 -0.4856 -0.6182
vn -0.0001 -1.0000 0.0055
vn 0.2696 -0.5912 -0.7601
vn -0.1174 -0.4733 -0.8730
vn -0.6341 -0.5201 -0.5721
vn -0.7849 -0.5502 -0.2849
vn -0.9120 -0.3752 0.1657
vn -0.6505 -0.3918 0.6506
vn 0.1521 -0.4463 0.8819
vn 0.7671 -0.2508 0.5904
vn 0.6182 -0.4856 -0.6181
usemtl Ice_cream.002
s 1
f 1/1/1 2/2/2 3/3/3
f 1/4/1 3/3/3 4/5/4
f 1/6/1 4/5/4 5/7/5
f 1/8/1 5/7/5 6/9/6
f 1/10/1 6/9/6 7/11/7
f 1/12/1 7/11/7 8/13/8
f 1/14/1 8/13/8 9/15/9
f 1/16/1 9/15/9 10/17/10
f 1/18/1 10/17/10 11/19/11
f 1/20/1 11/19/11 12/21/12
f 1/22/1 12/21/12 13/23/13
f 1/24/1 13/23/13 14/25/14
f 1/26/1 14/25/14 15/27/15
f 1/28/1 15/27/15 16/29/16
f 1/30/1 16/29/16 17/31/17
f 1/32/1 17/31/17 18/33/18
f 1/34/1 18/33/18 19/35/19
f 1/36/1 19/35/19 20/37/20
f 1/38/1 20/37/20 21/39/21
f 1/40/1 21/39/21 2/41/2
f 2/2/2 22/42/22 23/43/23
f 2/2/2 23/43/23 3/3/3
f 3/3/3 23/43/23 24/44/24
f 3/3/3 24/44/24 4/5/4
f 4/5/4 24/44/24 25/45/25
f 4/5/4 25/45/25 5/7/5
f 5/7/5 25/45/25 26/46/26
f 5/7/5 26/46/26 6/9/6
f 6/9/6 26/46/26 27/47/27
f 6/9/6 27/47/27 7/11/7
f 7/11/7 27/47/27 28/48/28
f 7/11/7 28/48/28 8/13/8
f 8/13/8 28/48/28 29/49/29
f 8/13/8 29/49/29 9/15/9
f 9/15/9 29/49/29 30/50/30
f 9/15/9 30/50/30 10/17/10
f 10/17/10 30/50/30 31/51/31
f 10/17/10 31/51/31 11/19/11
f 11/19/11 31/51/31 32/52/32
f 11/19/11 32/52/32 12/21/12
f 12/21/12 32/52/32 33/53/33
f 12/21/12 33/53/33 13/23/13
f 13/23/13 33/53/33 34/54/34
f 13/23/13 34/54/34 14/25/14
f 14/25/14 34/54/34 35/55/35
f 14/25/14 35/55/35 15/27/15
f 15/27/15 35/55/35 36/56/36
f 15/27/15 36/56/36 16/29/16
f 16/29/16 36/56/36 37/57/37
f 16/29/16 37/57/37 17/31/17
f 17/31/17 37/57/37 38/58/38
f 17/31/17 38/58/38 18/33/18
f 18/33/18 38/58/38 39/59/39
f 18/33/18 39/59/39 19/35/19
f 19/35/19 39/59/39 40/60/40
f 19/35/19 40/60/40 20/37/20
f 20/37/20 40/60/40 41/61/41
f 20/37/20 41/61/41 21/39/21
f 21/39/21 41/61/41 22/62/22
f 21/39/21 22/62/22 2/41/2
f 22/42/22 42/63/42 43/64/43
f 22/42/22 43/64/43 23/43/23
f 23/43/23 43/64/43 44/65/44
f 23/43/23 44/65/44 24/44/24
f 24/44/24 44/65/44 45/66/45
f 24/44/24 45/66/45 25/45/25
f 25/45/25 45/66/45 46/67/46
f 25/45/25 46/67/46 26/46/26
f 26/46/26 46/67/46 47/68/47
f 26/46/26 47/68/47 27/47/27
f 27/47/27 47/68/47 48/69/48
f 27/47/27 48/69/48 28/48/28
f 28/48/28 48/69/48 49/70/49
f 28/48/28 49/70/49 29/49/29
f 29/49/29 49/70/49 50/71/50
f 29/49/29 50/71/50 30/50/30
f 30/50/30 50/71/50 51/72/51
f 30/50/30 51/72/51 31/51/31
f 31/51/31 51/72/51 52/73/52
f 31/51/31 52/73/52 32/52/32
f 32/52/32 52/73/52 53/74/53
f 32/52/32 53/74/53 33/53/33
f 33/53/33 53/74/53 54/75/54
f 33/53/33 54/75/54 34/54/34
f 34/54/34 54/75/54 55/76/55
f 34/54/34 55/76/55 35/55/35
f 35/55/35 55/76/55 56/77/56
f 35/55/35 56/77/56 36/56/36
f 36/56/36 56/77/56 57/78/57
f 36/56/36 57/78/57 37/57/37
f 37/57/37 57/78/57 58/79/58
f 37/57/37 58/79/58 38/58/38
f 38/58/38 58/79/58 59/80/59
f 38/58/38 59/80/59 39/59/39
f 39/59/39 59/80/59 60/81/60
f 39/59/39 60/81/60 40/60/40
f 40/60/40 60/81/60 61/82/61
f 40/60/40 61/82/61 41/61/41
f 41/61/41 61/82/61 42/83/42
f 41/61/41 42/83/42 22/62/22
f 42/63/42 62/84/62 63/85/63
f 42/63/42 63/85/63 43/64/43
f 43/64/43 63/85/63 64/86/64
f 43/64/43 64/86/64 44/65/44
f 44/65/44 64/86/64 65/87/65
f 44/65/44 65/87/65 45/66/45
f 45/66/45 65/87/65 66/88/66
f 45/66/45 66/88/66 46/67/46
f 46/67/46 66/88/66 67/89/67
f 46/67/46 67/89/67 47/68/47
f 47/68/47 67/89/67 68/90/68
f 47/68/47 68/90/68 48/69/48
f 48/69/48 68/90/68 69/91/69
f 48/69/48 69/91/69 49/70/49
f 49/70/49 69/91/69 70/92/70
f 49/70/49 70/92/70 50/71/50
f 50/71/50 70/92/70 71/93/71
f 50/71/50 71/93/71 51/72/51
f 51/72/51 71/93/71 72/94/72
f 51/72/51 72/94/72 52/73/52
f 52/73/52 72/94/72 73/95/73
f 52/73/52 73/95/73 53/74/53
f 53/74/53 73/95/73 74/96/74
f 53/74/53 74/96/74 54/75/54
f 54/75/54 74/96/74 75/97/75
f 54/75/54 75/97/75 55/76/55
f 55/76/55 75/97/75 76/98/76
f 55/76/55 76/98/76 56/77/56
f 56/77/56 76/98/76 77/99/77
f 56/77/56 77/99/77 57/78/57
f 57/78/57 77/99/77 78/100/78
f 57/78/57 78/100/78 58/79/58
f 58/79/58 78/100/78 79/101/79
f 58/79/58 79/101/79 59/80/59
f 59/80/59 79/101/79 80/102/80
f 59/80/59 80/102/80 60/81/60
f 60/81/60 80/102/80 81/103/81
f 60/81/60 81/103/81 61/82/61
f 61/82/61 81/103/81 62/104/62
f 61/82/61 62/104/62 42/83/42
f 62/84/62 82/105/82 83/106/83
f 62/84/62 83/106/83 63/85/63
f 63/85/63 83/106/83 84/107/84
f 63/85/63 84/107/84 64/86/64
f 64/86/64 84/107/84 85/108/85
f 64/86/64 85/108/85 65/87/65
f 65/87/65 85/108/85 86/109/86
f 65/87/65 86/109/86 66/88/66
f 66/88/66 86/109/86 87/110/87
f 66/88/66 87/110/87 67/89/67
f 67/89/67 87/110/87 88/111/88
f 67/89/67 88/111/88 68/90/68
f 68/90/68 88/111/88 89/112/89
f 68/90/68 89/112/89 69/91/69
f 69/91/69 89/112/89 90/113/90
f 69/91/69 90/113/90 70/92/70
f 70/92/70 90/113/90 91/114/91
f 70/92/70 91/114/91 71/93/71
f 71/93/71 91/114/91 92/115/92
f 71/93/71 92/115/92 72/94/72
f 72/94/72 92/115/92 93/116/93
f 72/94/72 93/116/93 73/95/73
f 73/95/73 93/116/93 94/117/94
f 73/95/73 94/117/94 74/96/74
f 74/96/74 94/117/94 95/118/95
f 74/96/74 95/118/95 75/97/75
f 75/97/75 95/118/95 96/119/96
f 75/97/75 96/119/96 76/98/76
f 76/98/76 96/119/96 97/120/97
f 76/98/76 97/120/97 77/99/77
f 77/99/77 97/120/97 98/121/98
f 77/99/77 98/121/98 78/100/78
f 78/100/78 98/121/98 99/122/99
f 78/100/78 99/122/99 79/101/79
f 79/101/79 99/122/99 100/123/100
f 79/101/79 100/123/100 80/102/80
f 80/102/80 100/123/100 101/124/101
f 80/102/80 101/124/101 81/103/81
f 81/103/81 101/124/101 82/125/82
f 81/103/81 82/125/82 62/104/62
f 82/105/82 102/126/102 103/127/103
f 82/105/82 103/127/103 83/106/83
f 83/106/83 103/127/103 104/128/104
f 83/106/83 104/128/104 84/107/84
f 84/107/84 104/128/104 105/129/105
f 84/107/84 105/129/105 85/108/85
f 85/108/85 105/129/105 106/130/106
f 85/108/85 106/130/106 86/109/86
f 86/109/86 106/130/106 107/131/107
f 86/109/86 107/131/107 87/110/87
f 87/110/87 107/131/107 108/132/108
f 87/110/87 108/132/108 88/111/88
f 88/111/88 108/132/108 109/133/109
f 88/111/88 109/133/109 89/112/89
f 89/112/89 109/133/109 110/134/110
f 89/112/89 110/134/110 90/113/90
f 90/113/90 110/134/110 111/135/111
f 90/113/90 111/135/111 91/114/91
f 91/114/91 111/135/111 112/136/112
f 91/114/91 112/136/112 92/115/92
f 92/115/92 112/136/112 113/137/113
f 92/115/92 113/137/113 93/116/93
f 93/116/93 113/137/113 114/138/114
f 93/116/93 114/138/114 94/117/94
f 94/117/94 114/138/114 115/139/115
f 94/117/94 115/139/115 95/118/95
f 95/118/95 115/139/115 116/140/116
f 95/118/95 116/140/116 96/119/96
f 96/119/96 116/140/116 117/141/117
f 96/119/96 117/141/117 97/120/97
f 97/120/97 117/141/117 118/142/118
f 97/120/97 118/142/118 98/121/98
f 98/121/98 118/142/118 119/143/119
f 98/121/98 119/143/119 99/122/99
f 99/122/99 119/143/119 120/144/120
f 99/122/99 120/144/120 100/123/100
f 100/123/100 120/144/120 121/145/121
f 100/123/100 121/145/121 101/124/101
f 101/124/101 121/145/121 102/146/102
f 101/124/101 102/146/102 82/125/82
f 102/126/102 122/147/122 123/148/123
f 102/126/102 123/148/123 103/127/103
f 103/127/103 123/148/123 124/149/124
f 103/127/103 124/149/124 104/128/104
f 104/128/104 124/149/124 125/150/125
f 104/128/104 125/150/125 105/129/105
f 105/129/105 125/150/125 126/151/126
f 105/129/105 126/151/126 106/130/106
f 106/130/106 126/151/126 127/152/127
f 106/130/106 127/152/127 107/131/107
f 107/131/107 127/152/127 128/153/128
f 107/131/107 128/153/128 108/132/108
f 108/132/108 128/153/128 129/154/129
f 108/132/108 129/154/129 109/133/109
f 109/133/109 129/154/129 130/155/130
f 109/133/109 130/155/130 110/134/110
f 110/134/110 130/155/130 131/156/131
f 110/134/110 131/156/131 111/135/111
f 111/135/111 131/156/131 132/157/132
f 111/135/111 132/157/132 112/136/112
f 112/136/112 132/157/132 133/158/133
f 112/136/112 133/158/133 113/137/113
f 113/137/113 133/158/133 134/159/134
f 113/137/113 134/159/134 114/138/114
f 114/138/114 134/159/134 135/160/135
f 114/138/114 135/160/135 115/139/115
f 115/139/115 135/160/135 136/161/136
f 115/139/115 136/161/136 116/140/116
f 116/140/116 136/161/136 137/162/137
f 116/140/116 137/162/137 117/141/117
f 117/141/117 137/162/137 138/163/138
f 117/141/117 138/163/138 118/142/118
f 118/142/118 138/163/138 139/164/139
f 118/142/118 139/164/139 119/143/119
f 119/143/119 139/164/139 140/165/140
f 119/143/119 140/165/140 120/144/120
f 120/144/120 140/165/140 141/166/141
f 120/144/120 141/166/141 121/145/121
f 121/145/121 141/166/141 122/167/122
f 121/145/121 122/167/122 102/146/102
f 142/168/142 123/148/143 122/147/122
f 142/169/142 124/149/144 123/148/143
f 142/170/142 125/150/125 124/149/144
f 142/171/142 126/151/126 125/150/125
f 142/172/142 127/152/145 126/151/126
f 142/173/142 128/153/146 127/152/145
f 142/174/142 129/154/147 128/153/146
f 142/175/142 130/155/130 129/154/147
f 142/176/142 131/156/148 130/155/130
f 142/177/142 132/157/132 131/156/148
f 142/178/142 133/158/133 132/157/132
f 142/179/142 134/159/149 133/158/133
f 142/180/142 135/160/135 134/159/149
f 142/181/142 136/161/136 135/160/135
f 142/182/142 137/162/150 136/161/136
f 142/183/142 138/163/138 137/162/150
f 142/184/142 139/164/139 138/163/138
f 142/185/142 140/165/140 139/164/139
f 142/186/142 141/166/151 140/165/140
f 142/187/142 122/167/122 141/166/151
